<svg width="628" height="100" viewBox="0 0 628 100" fill="none" xmlns="http://www.w3.org/2000/svg">
<g filter="url(#filter0_d_2365_105)">
<rect x="24" y="8" width="580" height="52" rx="4" fill="#46BD62"/>
<path d="M266.395 40.192C269.595 40.192 271.147 38.592 271.147 36.72C271.147 32.608 264.635 34.032 264.635 31.968C264.635 31.264 265.227 30.688 266.763 30.688C267.755 30.688 268.827 30.976 269.867 31.568L270.667 29.6C269.627 28.944 268.187 28.608 266.779 28.608C263.595 28.608 262.059 30.192 262.059 32.096C262.059 36.256 268.571 34.816 268.571 36.912C268.571 37.6 267.947 38.112 266.411 38.112C265.067 38.112 263.659 37.632 262.715 36.944L261.835 38.896C262.827 39.664 264.619 40.192 266.395 40.192ZM276.774 37.92V35.328H281.974V33.312H276.774V30.88H282.662V28.8H274.198V40H282.87V37.92H276.774ZM293.925 28.8V35.6L288.357 28.8H286.213V40H288.773V33.2L294.357 40H296.485V28.8H293.925ZM300.415 40H305.503C309.167 40 311.679 37.792 311.679 34.4C311.679 31.008 309.167 28.8 305.503 28.8H300.415V40ZM303.007 37.872V30.928H305.375C307.599 30.928 309.055 32.256 309.055 34.4C309.055 36.544 307.599 37.872 305.375 37.872H303.007ZM328.437 28.8V35.6L322.869 28.8H320.725V40H323.285V33.2L328.869 40H330.997V28.8H328.437ZM340.35 40.192C343.87 40.192 346.478 37.744 346.478 34.4C346.478 31.056 343.87 28.608 340.35 28.608C336.814 28.608 334.222 31.072 334.222 34.4C334.222 37.728 336.814 40.192 340.35 40.192ZM340.35 37.984C338.35 37.984 336.846 36.528 336.846 34.4C336.846 32.272 338.35 30.816 340.35 30.816C342.35 30.816 343.854 32.272 343.854 34.4C343.854 36.528 342.35 37.984 340.35 37.984ZM363.779 28.8L361.171 36.736L358.611 28.8H356.211L353.571 36.672L351.043 28.8H348.355L352.035 40H354.803L357.347 32.416L359.811 40H362.595L366.259 28.8H363.779Z" fill="white"/>
</g>
<defs>
<filter id="filter0_d_2365_105" x="0" y="0" width="628" height="100" filterUnits="userSpaceOnUse" color-interpolation-filters="sRGB">
<feFlood flood-opacity="0" result="BackgroundImageFix"/>
<feColorMatrix in="SourceAlpha" type="matrix" values="0 0 0 0 0 0 0 0 0 0 0 0 0 0 0 0 0 0 127 0" result="hardAlpha"/>
<feOffset dy="16"/>
<feGaussianBlur stdDeviation="12"/>
<feColorMatrix type="matrix" values="0 0 0 0 0.0229167 0 0 0 0 0.0840517 0 0 0 0 0.166667 0 0 0 0.12 0"/>
<feBlend mode="normal" in2="BackgroundImageFix" result="effect1_dropShadow_2365_105"/>
<feBlend mode="normal" in="SourceGraphic" in2="effect1_dropShadow_2365_105" result="shape"/>
</filter>
</defs>
</svg>
